<svg xmlns="http://www.w3.org/2000/svg" width="504" height="292" viewBox="0 0 504 292">
<rect width="100%" height="100%" fill="white"/>
<text x="20" y="24" font-family="sans-serif" font-size="16">64 ranks · wse_fast · fold off</text>
<text x="20" y="44" font-family="sans-serif" font-size="11">Cell color: aggregate directed-link flit cycles / communication window</text>
<text x="40" y="64" font-family="sans-serif" font-size="12">Horizontal links</text>
<rect x="40" y="240" width="24" height="24" fill="rgb(33,102,172)" fill-opacity="0.1691" stroke="rgb(220,220,220)" stroke-width="0.3"/>
<rect x="64" y="240" width="24" height="24" fill="rgb(33,102,172)" fill-opacity="0.2903" stroke="rgb(220,220,220)" stroke-width="0.3"/>
<rect x="88" y="240" width="24" height="24" fill="rgb(33,102,172)" fill-opacity="0.2933" stroke="rgb(220,220,220)" stroke-width="0.3"/>
<rect x="112" y="240" width="24" height="24" fill="rgb(33,102,172)" fill-opacity="0.2923" stroke="rgb(220,220,220)" stroke-width="0.3"/>
<rect x="136" y="240" width="24" height="24" fill="rgb(33,102,172)" fill-opacity="0.2893" stroke="rgb(220,220,220)" stroke-width="0.3"/>
<rect x="160" y="240" width="24" height="24" fill="rgb(33,102,172)" fill-opacity="0.2903" stroke="rgb(220,220,220)" stroke-width="0.3"/>
<rect x="184" y="240" width="24" height="24" fill="rgb(33,102,172)" fill-opacity="0.2933" stroke="rgb(220,220,220)" stroke-width="0.3"/>
<rect x="208" y="240" width="24" height="24" fill="rgb(33,102,172)" fill-opacity="0.1721" stroke="rgb(220,220,220)" stroke-width="0.3"/>
<rect x="40" y="216" width="24" height="24" fill="rgb(33,102,172)" fill-opacity="0.1741" stroke="rgb(220,220,220)" stroke-width="0.3"/>
<rect x="64" y="216" width="24" height="24" fill="rgb(33,102,172)" fill-opacity="0.3013" stroke="rgb(220,220,220)" stroke-width="0.3"/>
<rect x="88" y="216" width="24" height="24" fill="rgb(33,102,172)" fill-opacity="0.2993" stroke="rgb(220,220,220)" stroke-width="0.3"/>
<rect x="112" y="216" width="24" height="24" fill="rgb(33,102,172)" fill-opacity="0.2923" stroke="rgb(220,220,220)" stroke-width="0.3"/>
<rect x="136" y="216" width="24" height="24" fill="rgb(33,102,172)" fill-opacity="0.2943" stroke="rgb(220,220,220)" stroke-width="0.3"/>
<rect x="160" y="216" width="24" height="24" fill="rgb(33,102,172)" fill-opacity="0.3013" stroke="rgb(220,220,220)" stroke-width="0.3"/>
<rect x="184" y="216" width="24" height="24" fill="rgb(33,102,172)" fill-opacity="0.2993" stroke="rgb(220,220,220)" stroke-width="0.3"/>
<rect x="208" y="216" width="24" height="24" fill="rgb(33,102,172)" fill-opacity="0.1721" stroke="rgb(220,220,220)" stroke-width="0.3"/>
<rect x="40" y="192" width="24" height="24" fill="rgb(33,102,172)" fill-opacity="0.1691" stroke="rgb(220,220,220)" stroke-width="0.3"/>
<rect x="64" y="192" width="24" height="24" fill="rgb(33,102,172)" fill-opacity="0.2903" stroke="rgb(220,220,220)" stroke-width="0.3"/>
<rect x="88" y="192" width="24" height="24" fill="rgb(33,102,172)" fill-opacity="0.2933" stroke="rgb(220,220,220)" stroke-width="0.3"/>
<rect x="112" y="192" width="24" height="24" fill="rgb(33,102,172)" fill-opacity="0.2923" stroke="rgb(220,220,220)" stroke-width="0.3"/>
<rect x="136" y="192" width="24" height="24" fill="rgb(33,102,172)" fill-opacity="0.2893" stroke="rgb(220,220,220)" stroke-width="0.3"/>
<rect x="160" y="192" width="24" height="24" fill="rgb(33,102,172)" fill-opacity="0.2903" stroke="rgb(220,220,220)" stroke-width="0.3"/>
<rect x="184" y="192" width="24" height="24" fill="rgb(33,102,172)" fill-opacity="0.2933" stroke="rgb(220,220,220)" stroke-width="0.3"/>
<rect x="208" y="192" width="24" height="24" fill="rgb(33,102,172)" fill-opacity="0.1721" stroke="rgb(220,220,220)" stroke-width="0.3"/>
<rect x="40" y="168" width="24" height="24" fill="rgb(33,102,172)" fill-opacity="0.1741" stroke="rgb(220,220,220)" stroke-width="0.3"/>
<rect x="64" y="168" width="24" height="24" fill="rgb(33,102,172)" fill-opacity="0.3013" stroke="rgb(220,220,220)" stroke-width="0.3"/>
<rect x="88" y="168" width="24" height="24" fill="rgb(33,102,172)" fill-opacity="0.2993" stroke="rgb(220,220,220)" stroke-width="0.3"/>
<rect x="112" y="168" width="24" height="24" fill="rgb(33,102,172)" fill-opacity="0.2923" stroke="rgb(220,220,220)" stroke-width="0.3"/>
<rect x="136" y="168" width="24" height="24" fill="rgb(33,102,172)" fill-opacity="0.2943" stroke="rgb(220,220,220)" stroke-width="0.3"/>
<rect x="160" y="168" width="24" height="24" fill="rgb(33,102,172)" fill-opacity="0.3013" stroke="rgb(220,220,220)" stroke-width="0.3"/>
<rect x="184" y="168" width="24" height="24" fill="rgb(33,102,172)" fill-opacity="0.2993" stroke="rgb(220,220,220)" stroke-width="0.3"/>
<rect x="208" y="168" width="24" height="24" fill="rgb(33,102,172)" fill-opacity="0.1721" stroke="rgb(220,220,220)" stroke-width="0.3"/>
<rect x="40" y="144" width="24" height="24" fill="rgb(33,102,172)" fill-opacity="0.1691" stroke="rgb(220,220,220)" stroke-width="0.3"/>
<rect x="64" y="144" width="24" height="24" fill="rgb(33,102,172)" fill-opacity="0.2903" stroke="rgb(220,220,220)" stroke-width="0.3"/>
<rect x="88" y="144" width="24" height="24" fill="rgb(33,102,172)" fill-opacity="0.2933" stroke="rgb(220,220,220)" stroke-width="0.3"/>
<rect x="112" y="144" width="24" height="24" fill="rgb(33,102,172)" fill-opacity="0.2923" stroke="rgb(220,220,220)" stroke-width="0.3"/>
<rect x="136" y="144" width="24" height="24" fill="rgb(33,102,172)" fill-opacity="0.2893" stroke="rgb(220,220,220)" stroke-width="0.3"/>
<rect x="160" y="144" width="24" height="24" fill="rgb(33,102,172)" fill-opacity="0.2903" stroke="rgb(220,220,220)" stroke-width="0.3"/>
<rect x="184" y="144" width="24" height="24" fill="rgb(33,102,172)" fill-opacity="0.2933" stroke="rgb(220,220,220)" stroke-width="0.3"/>
<rect x="208" y="144" width="24" height="24" fill="rgb(33,102,172)" fill-opacity="0.1721" stroke="rgb(220,220,220)" stroke-width="0.3"/>
<rect x="40" y="120" width="24" height="24" fill="rgb(33,102,172)" fill-opacity="0.1741" stroke="rgb(220,220,220)" stroke-width="0.3"/>
<rect x="64" y="120" width="24" height="24" fill="rgb(33,102,172)" fill-opacity="0.3013" stroke="rgb(220,220,220)" stroke-width="0.3"/>
<rect x="88" y="120" width="24" height="24" fill="rgb(33,102,172)" fill-opacity="0.2993" stroke="rgb(220,220,220)" stroke-width="0.3"/>
<rect x="112" y="120" width="24" height="24" fill="rgb(33,102,172)" fill-opacity="0.2923" stroke="rgb(220,220,220)" stroke-width="0.3"/>
<rect x="136" y="120" width="24" height="24" fill="rgb(33,102,172)" fill-opacity="0.2943" stroke="rgb(220,220,220)" stroke-width="0.3"/>
<rect x="160" y="120" width="24" height="24" fill="rgb(33,102,172)" fill-opacity="0.3013" stroke="rgb(220,220,220)" stroke-width="0.3"/>
<rect x="184" y="120" width="24" height="24" fill="rgb(33,102,172)" fill-opacity="0.2993" stroke="rgb(220,220,220)" stroke-width="0.3"/>
<rect x="208" y="120" width="24" height="24" fill="rgb(33,102,172)" fill-opacity="0.1721" stroke="rgb(220,220,220)" stroke-width="0.3"/>
<rect x="40" y="96" width="24" height="24" fill="rgb(33,102,172)" fill-opacity="0.1691" stroke="rgb(220,220,220)" stroke-width="0.3"/>
<rect x="64" y="96" width="24" height="24" fill="rgb(33,102,172)" fill-opacity="0.2903" stroke="rgb(220,220,220)" stroke-width="0.3"/>
<rect x="88" y="96" width="24" height="24" fill="rgb(33,102,172)" fill-opacity="0.2933" stroke="rgb(220,220,220)" stroke-width="0.3"/>
<rect x="112" y="96" width="24" height="24" fill="rgb(33,102,172)" fill-opacity="0.2923" stroke="rgb(220,220,220)" stroke-width="0.3"/>
<rect x="136" y="96" width="24" height="24" fill="rgb(33,102,172)" fill-opacity="0.2893" stroke="rgb(220,220,220)" stroke-width="0.3"/>
<rect x="160" y="96" width="24" height="24" fill="rgb(33,102,172)" fill-opacity="0.2903" stroke="rgb(220,220,220)" stroke-width="0.3"/>
<rect x="184" y="96" width="24" height="24" fill="rgb(33,102,172)" fill-opacity="0.2933" stroke="rgb(220,220,220)" stroke-width="0.3"/>
<rect x="208" y="96" width="24" height="24" fill="rgb(33,102,172)" fill-opacity="0.1721" stroke="rgb(220,220,220)" stroke-width="0.3"/>
<rect x="40" y="72" width="24" height="24" fill="rgb(33,102,172)" fill-opacity="0.1741" stroke="rgb(220,220,220)" stroke-width="0.3"/>
<rect x="64" y="72" width="24" height="24" fill="rgb(33,102,172)" fill-opacity="0.3013" stroke="rgb(220,220,220)" stroke-width="0.3"/>
<rect x="88" y="72" width="24" height="24" fill="rgb(33,102,172)" fill-opacity="0.2993" stroke="rgb(220,220,220)" stroke-width="0.3"/>
<rect x="112" y="72" width="24" height="24" fill="rgb(33,102,172)" fill-opacity="0.2923" stroke="rgb(220,220,220)" stroke-width="0.3"/>
<rect x="136" y="72" width="24" height="24" fill="rgb(33,102,172)" fill-opacity="0.2943" stroke="rgb(220,220,220)" stroke-width="0.3"/>
<rect x="160" y="72" width="24" height="24" fill="rgb(33,102,172)" fill-opacity="0.3013" stroke="rgb(220,220,220)" stroke-width="0.3"/>
<rect x="184" y="72" width="24" height="24" fill="rgb(33,102,172)" fill-opacity="0.2993" stroke="rgb(220,220,220)" stroke-width="0.3"/>
<rect x="208" y="72" width="24" height="24" fill="rgb(33,102,172)" fill-opacity="0.1721" stroke="rgb(220,220,220)" stroke-width="0.3"/>
<text x="136.0" y="282" text-anchor="middle" font-family="sans-serif" font-size="11">Mesh X</text>
<text x="16" y="168.0" text-anchor="middle" font-family="sans-serif" font-size="11" transform="rotate(-90 16 168.0)">Mesh Y</text>
<text x="292" y="64" font-family="sans-serif" font-size="12">Vertical links</text>
<rect x="292" y="240" width="24" height="24" fill="rgb(33,102,172)" fill-opacity="0.5025" stroke="rgb(220,220,220)" stroke-width="0.3"/>
<rect x="316" y="240" width="24" height="24" fill="rgb(33,102,172)" fill-opacity="0.5115" stroke="rgb(220,220,220)" stroke-width="0.3"/>
<rect x="340" y="240" width="24" height="24" fill="rgb(33,102,172)" fill-opacity="0.5275" stroke="rgb(220,220,220)" stroke-width="0.3"/>
<rect x="364" y="240" width="24" height="24" fill="rgb(33,102,172)" fill-opacity="0.5045" stroke="rgb(220,220,220)" stroke-width="0.3"/>
<rect x="388" y="240" width="24" height="24" fill="rgb(33,102,172)" fill-opacity="0.5025" stroke="rgb(220,220,220)" stroke-width="0.3"/>
<rect x="412" y="240" width="24" height="24" fill="rgb(33,102,172)" fill-opacity="0.5115" stroke="rgb(220,220,220)" stroke-width="0.3"/>
<rect x="436" y="240" width="24" height="24" fill="rgb(33,102,172)" fill-opacity="0.5275" stroke="rgb(220,220,220)" stroke-width="0.3"/>
<rect x="460" y="240" width="24" height="24" fill="rgb(33,102,172)" fill-opacity="0.5045" stroke="rgb(220,220,220)" stroke-width="0.3"/>
<rect x="292" y="216" width="24" height="24" fill="rgb(33,102,172)" fill-opacity="0.9469" stroke="rgb(220,220,220)" stroke-width="0.3"/>
<rect x="316" y="216" width="24" height="24" fill="rgb(33,102,172)" fill-opacity="0.9640" stroke="rgb(220,220,220)" stroke-width="0.3"/>
<rect x="340" y="216" width="24" height="24" fill="rgb(33,102,172)" fill-opacity="1.0000" stroke="rgb(220,220,220)" stroke-width="0.3"/>
<rect x="364" y="216" width="24" height="24" fill="rgb(33,102,172)" fill-opacity="0.9409" stroke="rgb(220,220,220)" stroke-width="0.3"/>
<rect x="388" y="216" width="24" height="24" fill="rgb(33,102,172)" fill-opacity="0.9469" stroke="rgb(220,220,220)" stroke-width="0.3"/>
<rect x="412" y="216" width="24" height="24" fill="rgb(33,102,172)" fill-opacity="0.9640" stroke="rgb(220,220,220)" stroke-width="0.3"/>
<rect x="436" y="216" width="24" height="24" fill="rgb(33,102,172)" fill-opacity="1.0000" stroke="rgb(220,220,220)" stroke-width="0.3"/>
<rect x="460" y="216" width="24" height="24" fill="rgb(33,102,172)" fill-opacity="0.9409" stroke="rgb(220,220,220)" stroke-width="0.3"/>
<rect x="292" y="192" width="24" height="24" fill="rgb(33,102,172)" fill-opacity="0.9469" stroke="rgb(220,220,220)" stroke-width="0.3"/>
<rect x="316" y="192" width="24" height="24" fill="rgb(33,102,172)" fill-opacity="0.9640" stroke="rgb(220,220,220)" stroke-width="0.3"/>
<rect x="340" y="192" width="24" height="24" fill="rgb(33,102,172)" fill-opacity="1.0000" stroke="rgb(220,220,220)" stroke-width="0.3"/>
<rect x="364" y="192" width="24" height="24" fill="rgb(33,102,172)" fill-opacity="0.9409" stroke="rgb(220,220,220)" stroke-width="0.3"/>
<rect x="388" y="192" width="24" height="24" fill="rgb(33,102,172)" fill-opacity="0.9469" stroke="rgb(220,220,220)" stroke-width="0.3"/>
<rect x="412" y="192" width="24" height="24" fill="rgb(33,102,172)" fill-opacity="0.9640" stroke="rgb(220,220,220)" stroke-width="0.3"/>
<rect x="436" y="192" width="24" height="24" fill="rgb(33,102,172)" fill-opacity="1.0000" stroke="rgb(220,220,220)" stroke-width="0.3"/>
<rect x="460" y="192" width="24" height="24" fill="rgb(33,102,172)" fill-opacity="0.9409" stroke="rgb(220,220,220)" stroke-width="0.3"/>
<rect x="292" y="168" width="24" height="24" fill="rgb(33,102,172)" fill-opacity="0.9469" stroke="rgb(220,220,220)" stroke-width="0.3"/>
<rect x="316" y="168" width="24" height="24" fill="rgb(33,102,172)" fill-opacity="0.9640" stroke="rgb(220,220,220)" stroke-width="0.3"/>
<rect x="340" y="168" width="24" height="24" fill="rgb(33,102,172)" fill-opacity="1.0000" stroke="rgb(220,220,220)" stroke-width="0.3"/>
<rect x="364" y="168" width="24" height="24" fill="rgb(33,102,172)" fill-opacity="0.9409" stroke="rgb(220,220,220)" stroke-width="0.3"/>
<rect x="388" y="168" width="24" height="24" fill="rgb(33,102,172)" fill-opacity="0.9469" stroke="rgb(220,220,220)" stroke-width="0.3"/>
<rect x="412" y="168" width="24" height="24" fill="rgb(33,102,172)" fill-opacity="0.9640" stroke="rgb(220,220,220)" stroke-width="0.3"/>
<rect x="436" y="168" width="24" height="24" fill="rgb(33,102,172)" fill-opacity="1.0000" stroke="rgb(220,220,220)" stroke-width="0.3"/>
<rect x="460" y="168" width="24" height="24" fill="rgb(33,102,172)" fill-opacity="0.9409" stroke="rgb(220,220,220)" stroke-width="0.3"/>
<rect x="292" y="144" width="24" height="24" fill="rgb(33,102,172)" fill-opacity="0.9469" stroke="rgb(220,220,220)" stroke-width="0.3"/>
<rect x="316" y="144" width="24" height="24" fill="rgb(33,102,172)" fill-opacity="0.9640" stroke="rgb(220,220,220)" stroke-width="0.3"/>
<rect x="340" y="144" width="24" height="24" fill="rgb(33,102,172)" fill-opacity="1.0000" stroke="rgb(220,220,220)" stroke-width="0.3"/>
<rect x="364" y="144" width="24" height="24" fill="rgb(33,102,172)" fill-opacity="0.9409" stroke="rgb(220,220,220)" stroke-width="0.3"/>
<rect x="388" y="144" width="24" height="24" fill="rgb(33,102,172)" fill-opacity="0.9469" stroke="rgb(220,220,220)" stroke-width="0.3"/>
<rect x="412" y="144" width="24" height="24" fill="rgb(33,102,172)" fill-opacity="0.9640" stroke="rgb(220,220,220)" stroke-width="0.3"/>
<rect x="436" y="144" width="24" height="24" fill="rgb(33,102,172)" fill-opacity="1.0000" stroke="rgb(220,220,220)" stroke-width="0.3"/>
<rect x="460" y="144" width="24" height="24" fill="rgb(33,102,172)" fill-opacity="0.9409" stroke="rgb(220,220,220)" stroke-width="0.3"/>
<rect x="292" y="120" width="24" height="24" fill="rgb(33,102,172)" fill-opacity="0.9469" stroke="rgb(220,220,220)" stroke-width="0.3"/>
<rect x="316" y="120" width="24" height="24" fill="rgb(33,102,172)" fill-opacity="0.9640" stroke="rgb(220,220,220)" stroke-width="0.3"/>
<rect x="340" y="120" width="24" height="24" fill="rgb(33,102,172)" fill-opacity="1.0000" stroke="rgb(220,220,220)" stroke-width="0.3"/>
<rect x="364" y="120" width="24" height="24" fill="rgb(33,102,172)" fill-opacity="0.9409" stroke="rgb(220,220,220)" stroke-width="0.3"/>
<rect x="388" y="120" width="24" height="24" fill="rgb(33,102,172)" fill-opacity="0.9469" stroke="rgb(220,220,220)" stroke-width="0.3"/>
<rect x="412" y="120" width="24" height="24" fill="rgb(33,102,172)" fill-opacity="0.9640" stroke="rgb(220,220,220)" stroke-width="0.3"/>
<rect x="436" y="120" width="24" height="24" fill="rgb(33,102,172)" fill-opacity="1.0000" stroke="rgb(220,220,220)" stroke-width="0.3"/>
<rect x="460" y="120" width="24" height="24" fill="rgb(33,102,172)" fill-opacity="0.9409" stroke="rgb(220,220,220)" stroke-width="0.3"/>
<rect x="292" y="96" width="24" height="24" fill="rgb(33,102,172)" fill-opacity="0.9469" stroke="rgb(220,220,220)" stroke-width="0.3"/>
<rect x="316" y="96" width="24" height="24" fill="rgb(33,102,172)" fill-opacity="0.9640" stroke="rgb(220,220,220)" stroke-width="0.3"/>
<rect x="340" y="96" width="24" height="24" fill="rgb(33,102,172)" fill-opacity="1.0000" stroke="rgb(220,220,220)" stroke-width="0.3"/>
<rect x="364" y="96" width="24" height="24" fill="rgb(33,102,172)" fill-opacity="0.9409" stroke="rgb(220,220,220)" stroke-width="0.3"/>
<rect x="388" y="96" width="24" height="24" fill="rgb(33,102,172)" fill-opacity="0.9469" stroke="rgb(220,220,220)" stroke-width="0.3"/>
<rect x="412" y="96" width="24" height="24" fill="rgb(33,102,172)" fill-opacity="0.9640" stroke="rgb(220,220,220)" stroke-width="0.3"/>
<rect x="436" y="96" width="24" height="24" fill="rgb(33,102,172)" fill-opacity="1.0000" stroke="rgb(220,220,220)" stroke-width="0.3"/>
<rect x="460" y="96" width="24" height="24" fill="rgb(33,102,172)" fill-opacity="0.9409" stroke="rgb(220,220,220)" stroke-width="0.3"/>
<rect x="292" y="72" width="24" height="24" fill="rgb(33,102,172)" fill-opacity="0.5025" stroke="rgb(220,220,220)" stroke-width="0.3"/>
<rect x="316" y="72" width="24" height="24" fill="rgb(33,102,172)" fill-opacity="0.5115" stroke="rgb(220,220,220)" stroke-width="0.3"/>
<rect x="340" y="72" width="24" height="24" fill="rgb(33,102,172)" fill-opacity="0.5275" stroke="rgb(220,220,220)" stroke-width="0.3"/>
<rect x="364" y="72" width="24" height="24" fill="rgb(33,102,172)" fill-opacity="0.5045" stroke="rgb(220,220,220)" stroke-width="0.3"/>
<rect x="388" y="72" width="24" height="24" fill="rgb(33,102,172)" fill-opacity="0.5025" stroke="rgb(220,220,220)" stroke-width="0.3"/>
<rect x="412" y="72" width="24" height="24" fill="rgb(33,102,172)" fill-opacity="0.5115" stroke="rgb(220,220,220)" stroke-width="0.3"/>
<rect x="436" y="72" width="24" height="24" fill="rgb(33,102,172)" fill-opacity="0.5275" stroke="rgb(220,220,220)" stroke-width="0.3"/>
<rect x="460" y="72" width="24" height="24" fill="rgb(33,102,172)" fill-opacity="0.5045" stroke="rgb(220,220,220)" stroke-width="0.3"/>
<text x="388.0" y="282" text-anchor="middle" font-family="sans-serif" font-size="11">Mesh X</text>
<text x="268" y="168.0" text-anchor="middle" font-family="sans-serif" font-size="11" transform="rotate(-90 268 168.0)">Mesh Y</text>
</svg>
